<?xml version="1.0" encoding="utf-8"?>
<!-- Generator: Adobe Illustrator 27.0.0, SVG Export Plug-In . SVG Version: 6.00 Build 0)  -->
<svg version="1.1" id="Layer_1" xmlns="http://www.w3.org/2000/svg" xmlns:xlink="http://www.w3.org/1999/xlink" x="0px" y="0px"
	 viewBox="0 0 512 512" style="enable-background:new 0 0 512 512;" xml:space="preserve">
<style type="text/css">
	.st0{opacity:0.16;fill:#B368C3;}
	.st1{fill:none;}
	.st2{fill:#4B065B;}
</style>
<circle id="Circle_Background" class="st0" cx="256" cy="256" r="238.36"/>
<g id="Plane">
	<path class="st1" d="M133.12,128h245.76c2.83,0,5.12,2.29,5.12,5.12v245.76c0,2.83-2.29,5.12-5.12,5.12H133.12
		c-2.83,0-5.12-2.29-5.12-5.12V133.12C128,130.29,130.29,128,133.12,128z"/>
	<path class="st2" d="M196.48,376.32h25.6l57.45-102.41h66.07c0,0,38.4,0,38.4-17.91c0-17.92-38.4-17.92-38.4-17.92h-66.07
		l-57.45-102.4h-25.6l31.85,102.4h-45.91l-28.81-25.61H128l20.49,43.52L128,299.52h25.6l28.81-25.61h45.91L196.48,376.32z"/>
</g>
</svg>
